<svg width="128" height="128" xmlns="http://www.w3.org/2000/svg">

 <title/>
 <g>
  <title>background</title>
  <rect fill="none" id="canvas_background" height="402" width="582" y="-1" x="-1"/>
 </g>
 <g>
  <title>Layer 1</title>
  <path fill="#ffffff" id="svg_4" d="m28.518368,68.481168a11.23038,11.23038 0 0 0 8.47,10.87a31.12062,31.12062 0 0 0 12.35,15.26a2.10454,2.10454 0 0 0 -0.44,3.72a30.99736,30.99736 0 0 0 34.22,0a2.10454,2.10454 0 0 0 -0.44,-3.72a31.12062,31.12062 0 0 0 12.35,-15.26c0.1,-0.03 0.21,-0.05 0.31,-0.09a11.18875,11.18875 0 0 0 4.67,-18.89s0.01,-0.05 0.02,-0.14a12.36072,12.36072 0 0 0 -3.97,-2.46a1.10376,1.10376 0 0 1 -0.05,0.13c-0.32,-0.11 -0.64,-0.2 -0.96,-0.29c-0.03,-0.07 -0.05,-0.14 -0.08,-0.21a31.01157,31.01157 0 0 0 -58,0.21c-0.32,0.09 -0.64,0.18 -0.96,0.29l0,-9.97a4,4 0 1 0 -4,0l0,12.44a11.14765,11.14765 0 0 0 -3.49,8.11zm37.49,-25a25,25 0 1 1 -25,25a24.99632,24.99632 0 0 1 25,-25z" class="cls-1"/>
 </g>
</svg>